<svg xmlns="http://www.w3.org/2000/svg" version="1.1" xmlns:xlink="http://www.w3.org/1999/xlink" xmlns:svgjs="http://svgjs.dev/svgjs" width="1000" height="681" viewBox="0 0 1000 681"><g transform="matrix(1,0,0,1,0.3840579710143288,-0.9635425531913597)"><svg viewBox="0 0 207 141" data-background-color="#ffffff" preserveAspectRatio="xMidYMid meet" height="681" width="1000" xmlns="http://www.w3.org/2000/svg" xmlns:xlink="http://www.w3.org/1999/xlink"><g id="tight-bounds" transform="matrix(1,0,0,1,-0.07949999999996749,0.19949999999997203)"><svg viewBox="0 0 207.15861638814016 140.60052000000002" height="140.60052000000002" width="207.15861638814016"><g><svg viewBox="0 0 207.15861638814016 140.60052000000002" height="140.60052000000002" width="207.15861638814016"><g><svg viewBox="0 0 207.15861638814016 140.60052000000002" height="140.60052000000002" width="207.15861638814016"><g><path d="M0 140.601v-140.601h207.159v140.601z" fill="#113f67" stroke="transparent" stroke-width="0" rx="0%" data-fill-palette-color="tertiary"></path><path d="M3.283 137.317v-134.034h200.592v134.034z" fill="#ffffff" stroke="transparent" stroke-width="0" rx="0%" data-fill-palette-color="quaternary"></path><path d="M9.85 130.751v-120.901h187.459v120.901z" fill="#113f67" stroke="transparent" stroke-width="0" data-fill-palette-color="tertiary"></path></g><g transform="matrix(1,0,0,1,19.69974,19.69974)" id="textblocktransform"><svg viewBox="0 0 167.75913638814018 101.20104" height="101.20104" width="167.75913638814018" id="textblock"><g><svg viewBox="0 0 167.75913638814018 101.20104" height="101.20104" width="167.75913638814018"><g transform="matrix(1,0,0,1,0,0)"><svg width="167.75913638814018" viewBox="4.849999904632568 -37.099998474121094 61.5 37.099998474121094" height="101.20104" data-palette-color="#ffffff"><path d="M31.8-26.3L31.8-26.3Q31.8-22.6 30.1-20.2 28.4-17.8 25.45-16.65 22.5-15.5 18.6-15.5L18.6-15.5 10.1-15.5Q9.65-15.5 9.65-15.05L9.65-15.05 9.65-0.75Q9.65 0 8.9 0L8.9 0 5.5 0Q5.15 0 5-0.15 4.85-0.3 4.85-0.65L4.85-0.65 4.85-36.4Q4.85-37.1 5.45-37.1L5.45-37.1 18.05-37.1Q22-37.1 25.1-36 28.2-34.9 30-32.5 31.8-30.1 31.8-26.3L31.8-26.3ZM26.9-26.45L26.9-26.45Q26.9-29 25.78-30.55 24.65-32.1 22.63-32.77 20.6-33.45 17.8-33.45L17.8-33.45 10.3-33.45Q9.65-33.45 9.65-32.85L9.65-32.85 9.65-19.85Q9.65-19.15 10.1-19.15L10.1-19.15 18.15-19.15Q22.1-19.15 24.5-20.9 26.9-22.65 26.9-26.45L26.9-26.45ZM65.85-0.95L65.85-0.95Q66-0.6 65.82-0.3 65.65 0 65.3 0L65.3 0 61.65 0Q61.1 0 60.85-0.6L60.85-0.6 54.4-16.35Q54.15-16.9 53.2-16.9L53.2-16.9 44.75-16.9Q44.4-16.9 44.27-16.75 44.15-16.6 44.15-16.35L44.15-16.35 44.15-0.8Q44.15 0 43.3 0L43.3 0 40.05 0Q39.65 0 39.5-0.18 39.35-0.35 39.35-0.65L39.35-0.65 39.35-36.4Q39.35-37.1 39.95-37.1L39.95-37.1 53.9-37.1Q59.8-37.1 63.07-34.68 66.35-32.25 66.35-27.5L66.35-27.5Q66.35-24.65 65.25-22.68 64.15-20.7 62.47-19.53 60.8-18.35 59.05-17.8L59.05-17.8Q58.65-17.75 58.85-17.3L58.85-17.3 65.85-0.95ZM52.5-20.4L52.5-20.4Q56.9-20.4 59.12-22 61.35-23.6 61.35-27.05L61.35-27.05Q61.35-30.4 59.37-32 57.4-33.6 53.65-33.6L53.65-33.6 44.85-33.6Q44.15-33.6 44.15-33.05L44.15-33.05 44.15-21.05Q44.15-20.4 44.6-20.4L44.6-20.4 52.5-20.4Z" opacity="1" transform="matrix(1,0,0,1,0,0)" fill="#ffffff" class="undefined-text-0" data-fill-palette-color="quaternary" id="text-0"></path></svg></g></svg></g></svg></g></svg></g><g></g></svg></g><defs></defs></svg><rect width="207.15861638814016" height="140.60052000000002" fill="none" stroke="none" visibility="hidden"></rect></g></svg></g></svg>